<?xml version="1.0" encoding="UTF-8" standalone="no"?>
<!-- Created with Inkscape (http://www.inkscape.org/) -->

<svg
   width="98.840782mm"
   height="19.025221mm"
   viewBox="0 0 98.840782 19.025221"
   version="1.1"
   id="svg1"
   xmlns="http://www.w3.org/2000/svg"
   xmlns:svg="http://www.w3.org/2000/svg">
  <defs
     id="defs1" />
  <g
     id="layer1"
     transform="translate(-43.888471,-123.0928)">
    <text
       xml:space="preserve"
       style="font-size:19.7556px;font-family:'Mouldy Cheese';-inkscape-font-specification:'Mouldy Cheese, Normal';text-align:start;writing-mode:lr-tb;direction:ltr;text-anchor:start;fill:#000000;fill-opacity:0.172549;stroke:#c7a8e0;stroke-width:0.264999"
       x="43.394581"
       y="141.92047"
       id="text1"><tspan
         id="tspan1"
         style="stroke-width:0.265"
         x="43.394581"
         y="141.92047"><tspan
           style="opacity:1;fill:#4b7346;fill-opacity:1;stroke:none"
           id="tspan3">Mentali</tspan><tspan
           style="fill:#a8c4a2;fill-opacity:1;stroke:none"
           id="tspan4">tea</tspan></tspan></text>
    <path
       d="m 142.15201,124.4127 c 0,0 0.20443,0.68299 -0.98583,0.6199 -1.19021,-0.0631 -1.97294,0.64518 -1.97294,0.64518 0,0 -0.4464,0.39798 -0.67874,0.74812 l -1.1e-4,-8.7e-4 c 0,0 -1.02032,1.25406 -0.35073,2.27508 0,0 0.62292,0.68421 0.90726,0.26496 0.18543,-0.27343 0.3191,-0.56698 0.43004,-0.82087 l 4.4e-4,7.3e-4 c 0,0 0.40503,-0.56507 0.65651,-0.74631 0.0336,-0.0207 0.0665,-0.0387 0.0988,-0.0552 0.10155,-0.0446 0.19628,-0.079 0.27309,-0.101 0.0482,-0.0141 0.0911,-0.0244 0.11973,-0.0266 0.18227,-0.0171 0.008,0.20912 0.008,0.20912 0,0 -0.63853,0.39489 -0.84267,0.66288 -8e-5,1e-4 -2.6e-4,1.7e-4 -2.3e-4,3.5e-4 -0.17256,0.16913 -0.3697,0.53151 -0.46897,0.72513 l 6e-5,-0.002 c 0,0 -0.0965,0.1374 -0.13586,0.17833 -7.1e-4,5.4e-4 -1.2e-4,8.5e-4 -6.2e-4,8.6e-4 -0.11772,0.10267 -0.10454,0.2461 -0.10454,0.2461 0,0 0.11704,-0.21856 0.2585,0.0521 0.14143,0.27064 0.15823,0.45461 0.85865,0.53903 0.70047,0.0844 1.63794,-0.61208 1.63794,-0.61208 0,0 0.88192,-0.71032 0.86934,-2.08499 -0.0126,-1.37467 -0.57683,-2.71802 -0.57683,-2.71802 z"
       style="fill:#c7a8e0;stroke-width:0.264999"
       id="path2" />
    <path
       d="m 135.18059,123.09289 c 0,0 0.56486,0.43496 -0.43805,1.07899 -1.00291,0.64404 -1.2245,1.67614 -1.2245,1.67614 0,0 -0.12984,0.58376 -0.11389,1.00366 l -8.6e-4,-6.9e-4 c 0,0 -0.0956,1.61388 1.04426,2.05146 0,0 0.90525,0.19148 0.89114,-0.31491 -0.01,-0.33024 -0.0722,-0.6466 -0.13045,-0.91746 l 8.7e-4,2.4e-4 c 0,0 -0.002,-0.69525 0.0969,-0.98923 0.0151,-0.0364 0.0313,-0.0703 0.048,-0.1025 0.0563,-0.0955 0.11313,-0.17882 0.16266,-0.24149 0.0311,-0.0393 0.0598,-0.0729 0.0814,-0.0918 0.13796,-0.12034 0.12852,0.16513 0.12852,0.16513 0,0 -0.28759,0.69352 -0.29674,1.03029 -2e-5,1e-4 -4e-5,2.9e-4 -2.3e-4,3.4e-4 -0.0412,0.23808 0.0104,0.64736 0.0429,0.8625 l -7.2e-4,-0.002 c 0,0 0.002,0.16791 -0.006,0.22412 -1.4e-4,8.4e-4 2.7e-4,7.5e-4 2.4e-4,0.002 -0.0356,0.15208 0.0591,0.26077 0.0591,0.26077 0,0 -0.0326,-0.24577 0.24025,-0.1087 0.27291,0.13703 0.39395,0.2766 1.0118,-0.0641 0.61784,-0.34066 0.97191,-1.45357 0.97191,-1.45357 0,0 0.3009,-1.09169 -0.51225,-2.20012 -0.8132,-1.10842 -2.05587,-1.86916 -2.05587,-1.86916 z"
       style="fill:#c7a8e0;stroke-width:0.264999"
       id="path3" />
    <path
       d="m 129.50016,125.97414 c 0,0 -0.17645,0.69075 1.01021,0.57931 1.18667,-0.11145 1.99756,0.56441 1.99756,0.56441 0,0 0.46221,0.37949 0.7086,0.71988 l 1.6e-4,-8.6e-4 c 0,0 1.07049,1.21153 0.44296,2.25892 0,0 -0.59456,0.70898 -0.89573,0.30162 -0.1964,-0.26564 -0.3419,-0.55352 -0.46306,-0.80269 l -6.4e-4,8.6e-4 c 0,0 -0.42768,-0.54813 -0.68632,-0.71897 -0.0343,-0.0194 -0.068,-0.0361 -0.10094,-0.0511 -0.10327,-0.0404 -0.19933,-0.071 -0.27696,-0.0898 -0.0488,-0.0118 -0.0921,-0.0205 -0.12065,-0.0221 -0.18282,-0.01 6.9e-4,0.20924 6.9e-4,0.20924 0,0 0.65404,0.36861 0.86891,0.62807 9e-5,9e-5 1.8e-4,2.8e-4 2.8e-4,2.5e-4 0.17932,0.16198 0.39104,0.51604 0.49808,0.70546 l -2.6e-4,-0.002 c 0,0 0.10197,0.13337 0.143,0.17266 4.6e-4,3.1e-4 2.4e-4,7.7e-4 5.6e-4,7.7e-4 0.12179,0.0978 0.11447,0.24164 0.11447,0.24164 0,0 -0.12579,-0.21363 -0.25616,0.0625 -0.13034,0.27617 -0.13958,0.46067 -0.83603,0.5735 -0.69646,0.11282 -1.66147,-0.54495 -1.66147,-0.54495 0,0 -0.91008,-0.67387 -0.95342,-2.04792 -0.0433,-1.37405 0.46582,-2.73923 0.46582,-2.73923 z"
       style="fill:#c7a8e0;stroke-width:0.264999"
       id="path4" />
  </g>
</svg>
